<?xml version="1.0" encoding="UTF-8"?><svg id="a" xmlns="http://www.w3.org/2000/svg" viewBox="0 0 367.84 120.74"><defs><style>.b{fill:none;}.c{fill:#0095b3;}.d{fill:#f79421;}.e{fill:#99ca3c;}.f{fill:#4d2159;}</style></defs><rect class="b" width="367.84" height="120.74"/><rect class="b" width="367.84" height="120.74"/><path class="d" d="M116.7,78.77c-7.34,22.31-28.65,38.45-53.8,38.45-2.49,0-4.94-.16-7.34-.46,1.56-15.1,8-28.79,17.76-39.5,6.82,3.86,14.72,6.06,23.15,6.06,7.25,0,14.12-1.63,20.24-4.54"/><rect class="b" width="367.84" height="120.74"/><path class="e" d="M118.94,54.29c-3.67-27.2-27.36-48.19-56.04-48.19h-.17c-14.78,8.02-26.68,20.52-33.84,35.62,6.59-2.57,13.68-4.15,21.09-4.58h0c1.35-.08,2.71-.12,4.08-.12,19.37,0,36.86,7.91,49.3,20.63,5.71,5.84,10.35,12.68,13.63,20.23,1.6-5.14,2.45-10.58,2.45-16.23,0-2.5-.17-4.96-.49-7.37Z"/><rect class="b" width="367.84" height="120.74"/><path class="c" d="M62.73,6.1c-14.78,8.02-26.68,20.52-33.84,35.62-8.33,3.24-15.85,8.05-22.2,14.05C9.68,27.91,33.61,6.18,62.73,6.1"/><rect class="b" width="367.84" height="120.74"/><path class="c" d="M27.68,105.11c-12.99-10.17-21.31-25.86-21.31-43.45,0-1.99,.11-3.95,.32-5.89h0c6.35-6,13.48-12.65,22.21-14.05-4.76,10.04-7.41,21.24-7.41,33.05,0,10.76,2.21,21.01,6.2,30.34"/><rect class="b" width="367.84" height="120.74"/><path class="f" d="M181.47,62.08c0,1.88-.68,3.44-2.03,4.65-1.49,1.39-3.48,2.09-5.99,2.09-2.35,0-4.16-.53-5.45-1.58-.56-.47-1.55-1.81-2.97-4.01l-22.95-34.95v39.85h-9.41V25.7c0-4.82,2.68-7.24,8.03-7.24,2.45,0,4.3,.51,5.55,1.54,.69,.56,1.72,1.9,3.07,4.01l22.75,34.89V18.91h9.42V62.08Z"/><rect class="b" width="367.84" height="120.74"/><path class="f" d="M239.71,56.77c0,7.5-5.4,11.25-16.21,11.25h-14.92c-5.22,0-9.12-.83-11.7-2.48-3.1-1.99-4.66-4.87-4.66-8.67V29.81c0-3.77,1.59-6.69,4.76-8.77,2.51-1.72,6.37-2.58,11.6-2.58h15.01c10.74,0,16.11,3.78,16.11,11.35v26.96Zm-9.72-1.78V31.89c0-2.31-.68-3.92-2.03-4.83-1.35-.91-3.58-1.36-6.69-1.36h-10.36c-3.17,0-5.43,.45-6.79,1.36-1.36,.91-2.04,2.52-2.04,4.83v22.9c0,2.05,.75,3.62,2.23,4.71,1.22,.86,3.42,1.29,6.59,1.29h10.36c3.04,0,5.25-.42,6.64-1.29,1.39-.86,2.08-2.36,2.08-4.51"/><rect class="b" width="367.84" height="120.74"/><path class="f" d="M303.29,18.46l-22.45,45.75c-1.49,3.01-3.82,4.51-6.99,4.51s-5.6-1.5-7.08-4.51l-22.46-45.75h10.45l18.99,40.15,19.18-40.15h10.36Z"/><rect class="b" width="367.84" height="120.74"/><path class="f" d="M357.86,68.02h-10.56l-5.9-12.14h-26.76l-5.9,12.14h-10.56l22-45.05c1.49-2.97,4.1-4.46,7.84-4.46s6.34,1.49,7.83,4.46l22,45.05Zm-19.58-18.93l-10.75-22.05-9.76,22.05h20.51Z"/><rect class="b" width="367.84" height="120.74"/><path class="f" d="M150.35,106.51c.1,.29,.16,.52,.16,.69,0,.18-.04,.31-.14,.4-.1,.09-.28,.15-.52,.17-.24,.03-.56,.04-.96,.04s-.73-.01-.97-.03c-.24-.02-.43-.05-.55-.1-.12-.05-.22-.11-.27-.19-.06-.08-.11-.18-.16-.3l-2.17-6.15h-10.51l-2.07,6.07c-.04,.12-.09,.22-.16,.3-.07,.08-.16,.15-.28,.21-.12,.06-.3,.1-.53,.13-.22,.03-.52,.04-.89,.04s-.68-.02-.92-.05c-.25-.03-.41-.09-.51-.18-.1-.09-.15-.23-.14-.4,0-.18,.06-.41,.17-.69l8.47-23.48c.05-.14,.12-.26,.21-.35,.09-.09,.21-.16,.37-.22,.16-.05,.37-.09,.63-.1,.26-.02,.58-.03,.97-.03,.42,0,.76,.01,1.03,.03,.28,.02,.5,.05,.67,.1,.17,.06,.3,.13,.39,.23,.09,.1,.16,.22,.22,.37l8.47,23.46Zm-10.88-20.71h-.02l-4.36,12.59h8.79l-4.41-12.59Z"/><rect class="b" width="367.84" height="120.74"/><path class="f" d="M175.07,94.69c0,2.19-.28,4.1-.84,5.73-.56,1.63-1.38,2.98-2.45,4.06-1.08,1.07-2.39,1.88-3.95,2.41-1.56,.53-3.43,.8-5.59,.8h-5.35c-.29,0-.58-.11-.85-.31-.26-.2-.4-.56-.4-1.06v-22.53c0-.51,.14-.86,.4-1.07,.27-.2,.55-.3,.85-.3h5.72c2.19,0,4.04,.28,5.55,.85,1.51,.56,2.77,1.38,3.8,2.44,1.02,1.07,1.8,2.35,2.32,3.86,.53,1.51,.79,3.22,.79,5.12m-3.53,.14c0-1.37-.17-2.64-.51-3.82-.34-1.18-.87-2.19-1.59-3.05-.72-.86-1.63-1.54-2.74-2.02-1.11-.48-2.53-.72-4.28-.72h-3.42v19.66h3.46c1.61,0,2.97-.2,4.08-.6,1.1-.41,2.03-1.02,2.77-1.85,.75-.84,1.3-1.88,1.67-3.14,.37-1.26,.56-2.74,.56-4.46"/><rect class="b" width="367.84" height="120.74"/><path class="f" d="M191.07,107.11c-.05,.15-.12,.26-.21,.35-.09,.09-.22,.16-.38,.21-.16,.06-.37,.09-.62,.11-.25,.02-.57,.03-.95,.03-.29,0-.54,0-.75-.01-.21,0-.4-.02-.55-.04-.16-.02-.29-.05-.4-.09-.11-.03-.21-.07-.28-.13-.08-.04-.14-.11-.19-.19-.05-.07-.09-.15-.13-.26l-8.26-23.47c-.1-.29-.16-.52-.17-.69,0-.18,.05-.32,.17-.41,.12-.09,.31-.15,.57-.17,.26-.03,.62-.04,1.06-.04,.36,0,.65,.01,.87,.03,.21,.02,.38,.05,.5,.1,.12,.06,.21,.12,.27,.21,.06,.08,.11,.19,.16,.32l7.25,21.26h.02l7.04-21.22c.04-.15,.09-.26,.14-.35,.06-.09,.15-.16,.27-.22,.13-.05,.31-.09,.55-.1,.23-.02,.54-.03,.94-.03s.72,.02,.95,.05c.24,.03,.4,.09,.48,.18,.08,.09,.12,.23,.1,.4-.02,.18-.08,.41-.19,.69l-8.24,23.47Z"/><rect class="b" width="367.84" height="120.74"/><path class="f" d="M218.68,106.31c0,.23,0,.44-.04,.61-.03,.17-.07,.32-.14,.44-.06,.12-.14,.21-.22,.25-.08,.05-.18,.08-.28,.08h-12.13c-.3,0-.58-.1-.85-.31-.27-.2-.4-.56-.4-1.06v-22.53c0-.51,.13-.86,.4-1.07,.27-.2,.55-.3,.85-.3h11.99c.1,0,.2,.02,.28,.08,.08,.05,.15,.14,.2,.25,.06,.12,.1,.26,.13,.44,.03,.18,.05,.4,.05,.65,0,.24-.02,.44-.05,.61-.04,.18-.08,.32-.13,.44-.05,.11-.12,.19-.2,.24-.08,.05-.18,.08-.28,.08h-9.88v7.92h8.47c.1,0,.2,.03,.28,.09,.09,.05,.16,.14,.22,.24,.05,.11,.1,.25,.13,.43,.03,.18,.04,.4,.04,.65,0,.23-.01,.44-.04,.61-.03,.17-.07,.3-.13,.41-.06,.1-.13,.18-.22,.22-.08,.05-.18,.07-.28,.07h-8.47v9.05h10.02c.1,0,.2,.02,.28,.07,.09,.05,.16,.13,.22,.24,.07,.12,.11,.25,.14,.43,.03,.17,.04,.39,.04,.66"/><rect class="b" width="367.84" height="120.74"/><path class="f" d="M242.08,107.19c0,.1-.02,.19-.06,.27-.04,.07-.13,.14-.26,.2-.12,.05-.31,.09-.54,.12-.24,.03-.55,.04-.94,.04-.33,0-.61-.01-.83-.04-.21-.02-.39-.06-.52-.13-.13-.06-.23-.14-.3-.24-.08-.11-.14-.23-.18-.39l-2.32-5.96c-.27-.67-.56-1.3-.85-1.86-.29-.56-.64-1.06-1.05-1.47-.41-.4-.88-.73-1.42-.95-.55-.23-1.21-.34-1.98-.34h-2.24v10.76c0,.1-.03,.19-.09,.27-.06,.07-.15,.14-.27,.18-.13,.05-.3,.08-.51,.12-.21,.03-.48,.05-.81,.05s-.59-.02-.81-.05c-.21-.03-.39-.07-.52-.12-.13-.04-.23-.11-.27-.18-.05-.08-.08-.17-.08-.27v-23.39c0-.5,.13-.86,.4-1.07,.27-.2,.55-.3,.85-.3h5.37c.64,0,1.17,.01,1.59,.05,.43,.03,.81,.07,1.14,.11,.98,.17,1.84,.43,2.59,.8,.75,.37,1.38,.83,1.88,1.39,.51,.56,.89,1.21,1.14,1.93,.25,.72,.38,1.52,.38,2.39s-.12,1.61-.34,2.28c-.23,.66-.56,1.26-.99,1.77-.43,.52-.94,.96-1.54,1.34-.6,.38-1.27,.7-2.01,.95,.42,.19,.79,.42,1.13,.7,.34,.28,.65,.61,.95,1,.29,.39,.57,.84,.83,1.35,.26,.51,.52,1.08,.78,1.72l2.27,5.57c.18,.47,.3,.79,.34,.99,.06,.18,.08,.33,.08,.44m-5.06-17.74c0-.99-.22-1.83-.66-2.51-.44-.69-1.19-1.17-2.23-1.47-.33-.1-.7-.16-1.1-.2-.41-.04-.95-.06-1.61-.06h-2.83v8.52h3.28c.89,0,1.65-.11,2.3-.32,.64-.21,1.18-.51,1.61-.9,.43-.38,.74-.84,.94-1.36,.2-.52,.3-1.08,.3-1.69"/><rect class="b" width="367.84" height="120.74"/><path class="f" d="M263.47,83.88c0,.25-.02,.46-.05,.65-.02,.18-.06,.33-.12,.44-.06,.11-.13,.2-.21,.24-.08,.05-.18,.08-.29,.08h-7.1v21.91c0,.1-.03,.19-.08,.27-.06,.08-.14,.15-.27,.19-.13,.05-.3,.08-.52,.12-.21,.03-.48,.05-.81,.05s-.58-.02-.8-.05c-.23-.03-.4-.07-.52-.12-.13-.04-.23-.11-.28-.19-.05-.07-.08-.17-.08-.27v-21.91h-7.11c-.1,0-.2-.03-.28-.08-.09-.04-.15-.13-.2-.24-.05-.11-.09-.26-.13-.44-.04-.18-.05-.4-.05-.65s.01-.46,.05-.65c.03-.19,.07-.34,.13-.46,.05-.11,.12-.2,.2-.25,.09-.05,.18-.08,.28-.08h17.57c.11,0,.2,.02,.29,.08,.09,.05,.16,.14,.21,.25,.06,.12,.1,.27,.12,.46,.03,.19,.05,.41,.05,.65"/><rect class="b" width="367.84" height="120.74"/><path class="f" d="M271.55,107.19c0,.1-.02,.19-.08,.27-.05,.08-.14,.15-.27,.19-.13,.05-.31,.09-.52,.12-.21,.03-.48,.05-.81,.05-.31,0-.58-.02-.79-.05-.23-.03-.41-.07-.53-.12-.13-.04-.22-.11-.27-.19-.05-.08-.08-.17-.08-.27v-24.25c0-.1,.03-.2,.09-.27,.06-.08,.16-.14,.29-.19,.13-.05,.31-.08,.52-.11,.22-.03,.47-.05,.77-.05,.33,0,.6,.02,.81,.05,.22,.03,.39,.07,.52,.11,.13,.05,.22,.11,.27,.19,.05,.08,.08,.17,.08,.27v24.25Z"/><rect class="b" width="367.84" height="120.74"/><path class="f" d="M292.92,100.61c0,1.18-.22,2.23-.66,3.16-.44,.93-1.04,1.7-1.82,2.36-.78,.65-1.69,1.13-2.74,1.46-1.05,.32-2.18,.48-3.39,.48-.84,0-1.63-.07-2.35-.21-.72-.14-1.37-.32-1.94-.52-.57-.21-1.04-.43-1.42-.65-.39-.22-.65-.41-.8-.56-.15-.16-.27-.35-.33-.59-.07-.24-.1-.57-.1-.97,0-.29,.01-.52,.04-.72,.02-.18,.06-.34,.12-.46,.05-.11,.11-.2,.19-.25,.08-.05,.17-.07,.28-.07,.18,0,.44,.11,.77,.33,.33,.22,.76,.46,1.28,.72,.52,.26,1.14,.5,1.88,.73,.74,.23,1.59,.34,2.55,.34,.73,0,1.4-.09,2-.28,.6-.21,1.12-.48,1.56-.84,.43-.35,.77-.79,1-1.32,.23-.52,.35-1.11,.35-1.78,0-.71-.16-1.33-.49-1.83-.33-.51-.75-.96-1.29-1.34-.54-.38-1.14-.74-1.83-1.05-.68-.32-1.38-.65-2.1-.98-.72-.33-1.42-.7-2.09-1.1-.68-.41-1.29-.88-1.81-1.43-.54-.54-.97-1.18-1.3-1.92-.33-.73-.5-1.62-.5-2.64s.19-2,.58-2.82c.38-.82,.92-1.52,1.6-2.08,.68-.56,1.5-.99,2.44-1.28,.94-.3,1.96-.44,3.05-.44,.56,0,1.12,.05,1.69,.14,.57,.1,1.1,.23,1.6,.39,.5,.16,.94,.35,1.33,.55,.4,.21,.65,.37,.78,.49,.12,.12,.21,.21,.24,.29,.04,.07,.07,.16,.1,.28,.03,.1,.04,.24,.06,.4,.02,.16,.02,.36,.02,.6s0,.45-.03,.63c-.02,.18-.05,.34-.09,.46-.04,.12-.09,.21-.16,.27-.07,.05-.15,.09-.24,.09-.15,0-.37-.09-.67-.28-.31-.18-.68-.38-1.12-.61-.45-.23-.97-.44-1.57-.63-.6-.19-1.29-.28-2.04-.28-.71,0-1.31,.09-1.83,.28-.52,.19-.95,.44-1.29,.75-.34,.31-.59,.69-.76,1.11-.17,.43-.25,.89-.25,1.37,0,.7,.16,1.31,.49,1.81,.32,.51,.76,.96,1.3,1.35,.54,.39,1.15,.75,1.85,1.07,.69,.33,1.39,.66,2.11,.99,.71,.33,1.42,.7,2.1,1.1,.69,.39,1.31,.86,1.84,1.41,.54,.54,.98,1.18,1.31,1.91,.33,.74,.5,1.61,.5,2.61"/><rect class="b" width="367.84" height="120.74"/><path class="f" d="M302.16,107.19c0,.1-.02,.19-.08,.27-.05,.08-.14,.15-.27,.19-.13,.05-.3,.09-.52,.12-.21,.03-.48,.05-.81,.05s-.58-.02-.8-.05c-.22-.03-.4-.07-.53-.12-.13-.04-.22-.11-.27-.19-.05-.08-.08-.17-.08-.27v-24.25c0-.1,.03-.2,.09-.27,.06-.08,.16-.14,.29-.19,.14-.05,.31-.08,.52-.11,.22-.03,.47-.05,.77-.05,.33,0,.6,.02,.81,.05,.21,.03,.39,.07,.52,.11,.13,.05,.22,.11,.27,.19,.06,.08,.08,.17,.08,.27v24.25Z"/><rect class="b" width="367.84" height="120.74"/><path class="f" d="M329.05,106.31c0,.26-.05,.48-.13,.66-.09,.18-.2,.33-.34,.45-.14,.11-.3,.2-.47,.25-.18,.06-.35,.08-.53,.08h-1.11c-.35,0-.66-.04-.92-.11-.27-.07-.51-.2-.75-.39-.24-.18-.47-.44-.71-.77-.24-.32-.49-.75-.75-1.25l-7.71-14.37c-.4-.75-.81-1.52-1.22-2.33-.41-.82-.79-1.61-1.14-2.37h-.04c.03,.93,.04,1.89,.06,2.86,.01,.98,.02,1.95,.02,2.91v15.25c0,.09-.03,.18-.08,.26-.05,.08-.15,.15-.28,.19-.13,.05-.3,.09-.52,.12-.21,.03-.48,.05-.81,.05s-.6-.02-.81-.05c-.21-.03-.38-.07-.5-.12-.12-.04-.21-.11-.27-.19-.06-.08-.08-.17-.08-.26v-23.31c0-.52,.14-.89,.44-1.11,.29-.22,.62-.33,.97-.33h1.65c.38,0,.71,.03,.97,.09,.26,.07,.5,.18,.7,.33,.21,.15,.41,.35,.61,.62,.19,.27,.4,.6,.61,1.01l5.93,11.09c.36,.68,.71,1.34,1.05,1.98,.34,.64,.66,1.28,.98,1.9,.32,.63,.63,1.24,.93,1.85,.31,.61,.61,1.21,.92,1.83h.02c-.03-1.03-.04-2.1-.05-3.21,0-1.11,0-2.18,0-3.21v-13.71c0-.09,.03-.17,.08-.25,.06-.08,.14-.15,.28-.2,.13-.06,.3-.1,.51-.13,.21-.03,.5-.04,.84-.04,.31,0,.56,.01,.78,.04,.22,.03,.39,.07,.52,.13,.12,.05,.21,.13,.27,.2,.06,.08,.08,.17,.08,.25v23.32Z"/><rect class="b" width="367.84" height="120.74"/><path class="f" d="M355.82,85.87c0,.25-.02,.46-.04,.66-.03,.19-.06,.34-.12,.47-.05,.12-.11,.21-.19,.26-.07,.05-.16,.08-.25,.08-.16,0-.41-.13-.78-.37-.37-.25-.86-.52-1.47-.82-.61-.31-1.34-.57-2.19-.82-.86-.25-1.87-.37-3.04-.37-1.39,0-2.64,.25-3.75,.76-1.11,.5-2.04,1.2-2.81,2.11-.77,.89-1.36,1.96-1.77,3.2-.41,1.24-.61,2.58-.61,4.02,0,1.62,.22,3.04,.67,4.29,.45,1.25,1.07,2.31,1.86,3.17,.79,.86,1.74,1.51,2.84,1.96,1.1,.43,2.31,.66,3.63,.66,.78,0,1.57-.09,2.37-.28,.8-.19,1.55-.47,2.24-.85v-7.36h-5.86c-.22,0-.38-.11-.49-.33-.12-.23-.17-.57-.17-1.04,0-.25,.02-.46,.05-.64,.02-.17,.06-.32,.13-.43,.05-.12,.12-.19,.2-.25,.07-.05,.17-.08,.29-.08h8.02c.14,0,.29,.03,.43,.08,.15,.05,.27,.13,.39,.24,.11,.11,.21,.25,.27,.43,.07,.18,.1,.39,.1,.63v9.62c0,.34-.06,.63-.18,.88-.12,.25-.36,.47-.74,.65-.37,.19-.86,.4-1.46,.62-.6,.22-1.22,.41-1.86,.57-.64,.16-1.28,.27-1.93,.34-.65,.08-1.3,.12-1.93,.12-1.95,0-3.7-.31-5.23-.91-1.54-.6-2.83-1.47-3.9-2.59-1.06-1.12-1.87-2.46-2.43-4.02-.56-1.56-.84-3.31-.84-5.23s.3-3.82,.9-5.45c.61-1.63,1.46-3.01,2.56-4.16,1.1-1.14,2.42-2.03,3.97-2.67,1.54-.63,3.25-.95,5.12-.95,.97,0,1.87,.09,2.72,.26,.85,.16,1.59,.36,2.26,.59,.66,.23,1.21,.47,1.66,.74,.45,.27,.76,.48,.93,.66,.17,.17,.28,.36,.35,.59,.06,.22,.1,.54,.1,.95"/><rect class="b" width="367.84" height="120.74"/></svg>